<svg width="26" height="26" viewBox="0 0 26 26" fill="none" xmlns="http://www.w3.org/2000/svg">
<path d="M4.59134 0.0109253C2.04794 0.0109253 0 2.04705 0 4.57578V20.4461C0 22.9748 2.04794 25.011 4.59134 25.011H13.2428V15.2375H10.6434V11.7188H13.2428V8.7125C13.2428 6.35063 14.7787 4.18203 18.3166 4.18203C19.7491 4.18203 20.8083 4.31875 20.8083 4.31875L20.725 7.6047C20.725 7.6047 19.6447 7.59455 18.4659 7.59455C17.1901 7.59455 16.9855 8.179 16.9855 9.14925V11.7188H20.8264L20.659 15.2375H16.9855V25.011H20.5537C23.0971 25.011 25.1451 22.9749 25.1451 20.4461V4.5758C25.1451 2.04708 23.0971 0.0109503 20.5537 0.0109503L4.59134 0.0109253Z" fill="#F9F9F9"/>
</svg>
