<svg width="26" height="26" viewBox="0 0 26 26" fill="none" xmlns="http://www.w3.org/2000/svg">
<path d="M25.4906 9.04062L25.4812 8.99375C25.475 8.9625 25.4718 8.93437 25.4625 8.90312C25.4562 8.88437 25.4499 8.86875 25.4468 8.85C25.4375 8.825 25.4312 8.79688 25.4187 8.77188C25.4125 8.75313 25.4031 8.7375 25.3937 8.71875C25.3812 8.69375 25.3687 8.67188 25.3562 8.64688C25.3468 8.63125 25.3375 8.6125 25.325 8.59687C25.3 8.55937 25.2718 8.52187 25.2437 8.48437C25.2281 8.46562 25.2093 8.44375 25.1906 8.425C25.1781 8.40937 25.1625 8.39687 25.1468 8.38437C25.1281 8.36562 25.1062 8.35 25.0875 8.33437C25.0718 8.32188 25.0562 8.30937 25.0375 8.29687C25.0312 8.29375 25.025 8.2875 25.0187 8.28437L13.5968 0.68125C13.4206 0.563551 13.2134 0.500732 13.0015 0.500732C12.7896 0.500732 12.5824 0.563551 12.4062 0.68125L0.978076 8.29062C0.971826 8.29375 0.965576 8.3 0.959326 8.30312C0.943701 8.31562 0.928076 8.32812 0.909326 8.34062C0.887451 8.35625 0.868701 8.375 0.849951 8.39062C0.834326 8.40312 0.821826 8.41875 0.806201 8.43125C0.787451 8.45 0.768701 8.46875 0.753076 8.49062C0.721826 8.525 0.696826 8.5625 0.671826 8.60312C0.662451 8.61875 0.649951 8.63437 0.640576 8.65312C0.628076 8.675 0.615576 8.7 0.603076 8.725C0.593701 8.74063 0.587451 8.75937 0.578076 8.77812C0.568701 8.80312 0.559326 8.83125 0.549951 8.85625C0.543701 8.875 0.537451 8.89062 0.534326 8.90937C0.528076 8.9375 0.521826 8.96875 0.515576 9L0.506201 9.04688C0.499951 9.09375 0.496826 9.14062 0.496826 9.1875V16.7969C0.496826 16.8438 0.499951 16.8906 0.506201 16.9375L0.515576 16.9844L0.534326 17.075C0.540576 17.0938 0.543701 17.1094 0.549951 17.1281C0.559326 17.1562 0.568701 17.1812 0.578076 17.2062C0.584326 17.225 0.593701 17.2406 0.603076 17.2594C0.615576 17.2844 0.624951 17.3062 0.640576 17.3312C0.649951 17.3469 0.659326 17.3656 0.671826 17.3813C0.687451 17.4031 0.699951 17.425 0.718701 17.4469L0.756201 17.4937C0.771826 17.5125 0.790576 17.5344 0.809326 17.5531C0.821826 17.5688 0.837451 17.5812 0.853076 17.5938C0.871826 17.6125 0.893701 17.6281 0.912451 17.6437C0.928076 17.6562 0.943701 17.6687 0.962451 17.6812C0.968701 17.6844 0.974951 17.6906 0.981201 17.6938L12.4062 25.3031C12.5812 25.4219 12.7906 25.4844 13.0031 25.4844C13.2093 25.4844 13.4187 25.425 13.6 25.3031L25.025 17.6938C25.0312 17.6906 25.0375 17.6844 25.0437 17.6812C25.0593 17.6687 25.075 17.6562 25.0937 17.6437C25.1156 17.6281 25.1343 17.6094 25.1531 17.5938C25.1687 17.5812 25.1812 17.5656 25.1968 17.5531C25.2156 17.5344 25.2343 17.5156 25.25 17.4937L25.2875 17.4469L25.3343 17.3813C25.3437 17.3656 25.3562 17.35 25.3656 17.3312C25.3781 17.3062 25.3906 17.2844 25.4031 17.2594C25.4125 17.2437 25.4187 17.225 25.4281 17.2062C25.4375 17.1812 25.4468 17.1531 25.4562 17.1281C25.4625 17.1125 25.4687 17.0938 25.4718 17.075C25.4812 17.0469 25.4843 17.0156 25.4906 16.9844L25.5 16.9375C25.5062 16.8906 25.5093 16.8438 25.5093 16.7969V9.18125C25.5 9.13437 25.4968 9.0875 25.4906 9.04062ZM14.075 3.57812L22.4937 9.18437L18.7343 11.6969L14.0781 8.58438V3.57812H14.075ZM11.925 3.57812V8.58438L7.2687 11.6969L3.50933 9.18437L11.925 3.57812ZM2.64683 11.1906L5.33433 12.9875L2.64683 14.7844V11.1906ZM11.925 22.3937L3.50933 16.7875L7.2687 14.275L11.925 17.3875V22.3937ZM13 15.525L9.19995 12.9875L13 10.4469L16.7999 12.9844L13 15.525ZM14.075 22.3937V17.3875L18.7312 14.275L22.4906 16.7875L14.075 22.3937ZM23.3531 14.7812L20.6656 12.9844L23.3531 11.1875V14.7812Z" fill="#F9F9F9"/>
</svg>
