<svg width="29" height="29" viewBox="0 0 29 29" fill="none" xmlns="http://www.w3.org/2000/svg">
<path d="M14.0922 6.82344C10.0942 6.82344 6.86932 10.0297 6.86932 14.0047C6.86932 17.9797 10.0942 21.186 14.0922 21.186C18.0903 21.186 21.3152 17.9797 21.3152 14.0047C21.3152 10.0297 18.0903 6.82344 14.0922 6.82344ZM14.0922 18.6735C11.5086 18.6735 9.3964 16.5797 9.3964 14.0047C9.3964 11.4297 11.5023 9.33595 14.0922 9.33595C16.6822 9.33595 18.7881 11.4297 18.7881 14.0047C18.7881 16.5797 16.6759 18.6735 14.0922 18.6735ZM23.2953 6.52969C23.2953 7.46094 22.541 8.20469 21.6106 8.20469C20.674 8.20469 19.9259 7.45469 19.9259 6.52969C19.9259 5.60469 20.6802 4.85469 21.6106 4.85469C22.541 4.85469 23.2953 5.60469 23.2953 6.52969ZM28.0792 8.22969C27.9723 5.98594 27.4568 3.99844 25.8036 2.36094C24.1566 0.723438 22.1575 0.210938 19.9008 0.0984376C17.5748 -0.0328125 10.6034 -0.0328125 8.27744 0.0984376C6.02696 0.204688 4.02793 0.717188 2.37464 2.35469C0.721349 3.99219 0.212162 5.97969 0.0990087 8.22344C-0.0330029 10.5359 -0.0330029 17.4672 0.0990087 19.7797C0.205875 22.0235 0.721349 24.011 2.37464 25.6485C4.02793 27.286 6.02067 27.7985 8.27744 27.911C10.6034 28.0422 17.5748 28.0422 19.9008 27.911C22.1575 27.8047 24.1566 27.2922 25.8036 25.6485C27.4506 24.011 27.966 22.0235 28.0792 19.7797C28.2112 17.4672 28.2112 10.5422 28.0792 8.22969ZM25.0743 22.261C24.584 23.486 23.6348 24.4297 22.3964 24.9235C20.542 25.6547 16.1416 25.486 14.0922 25.486C12.0429 25.486 7.63624 25.6485 5.78808 24.9235C4.55597 24.436 3.60675 23.4922 3.11013 22.261C2.37464 20.4172 2.54437 16.0422 2.54437 14.0047C2.54437 11.9672 2.38092 7.58594 3.11013 5.74844C3.60046 4.52344 4.54969 3.57969 5.78808 3.08594C7.64253 2.35469 12.0429 2.52344 14.0922 2.52344C16.1416 2.52344 20.5482 2.36094 22.3964 3.08594C23.6285 3.57344 24.5777 4.51719 25.0743 5.74844C25.8098 7.59219 25.6401 11.9672 25.6401 14.0047C25.6401 16.0422 25.8098 20.4235 25.0743 22.261Z" fill="#F9F9F9"/>
</svg>
