<svg width="29" height="28" viewBox="0 0 29 28" fill="none" xmlns="http://www.w3.org/2000/svg">
<path d="M14.0687 0.0109265C6.2957 0.00780146 0 6.26405 0 13.9859C0 20.0922 3.93835 25.2828 9.42311 27.1891C10.1617 27.3734 10.0486 26.8516 10.0486 26.4953V24.0734C5.78337 24.5703 5.61049 21.7641 5.32447 21.2953C4.74613 20.3141 3.37887 20.0641 3.78748 19.5953C4.7587 19.0984 5.74879 19.7203 6.89603 21.4047C7.72582 22.6266 9.34453 22.4203 10.1649 22.2172C10.3441 21.4828 10.7275 20.8266 11.2556 20.3172C6.83631 19.5297 4.99444 16.8484 4.99444 13.6609C4.99444 12.1141 5.50677 10.6922 6.51257 9.54531C5.87137 7.65468 6.57229 6.03593 6.66659 5.7953C8.49275 5.6328 10.3912 7.0953 10.5389 7.21093C11.5762 6.93281 12.7611 6.78593 14.0875 6.78593C15.4202 6.78593 16.6083 6.93905 17.655 7.2203C18.0102 6.95155 19.7703 5.6953 21.4676 5.84843C21.5588 6.08905 22.244 7.67031 21.6405 9.53593C22.6588 10.6859 23.1775 12.1203 23.1775 13.6703C23.1775 16.8641 21.323 19.5484 16.8912 20.3234C17.2708 20.6946 17.5722 21.1372 17.7778 21.6255C17.9834 22.1138 18.0891 22.6379 18.0887 23.1672V26.6828C18.1139 26.9641 18.0887 27.2422 18.5602 27.2422C24.1267 25.3766 28.1342 20.1484 28.1342 13.9891C28.1342 6.26405 21.8353 0.0109265 14.0687 0.0109265Z" fill="#F9F9F9"/>
</svg>
